<svg width="302" height="146" viewBox="0 0 302 146" fill="none" xmlns="http://www.w3.org/2000/svg">
<path fill-rule="evenodd" clip-rule="evenodd" d="M21.0537 1C10.008 1 1.05371 9.9543 1.05371 21V111C1.05371 122.046 10.008 131 21.0537 131H70.8086V142.83C70.8086 144.508 72.7517 145.44 74.0607 144.389L90.7386 131H280.004C291.049 131 300.004 122.046 300.004 111V21C300.004 9.95431 291.049 1 280.004 1H21.0537Z" fill="white"/>
<path d="M70.8086 131H71.8086V130H70.8086V131ZM74.0607 144.389L74.6867 145.169L74.0607 144.389ZM90.7386 131V130H90.3869L90.1126 130.22L90.7386 131ZM2.05371 21C2.05371 10.5066 10.5603 2 21.0537 2V0C9.45573 0 0.0537109 9.40202 0.0537109 21H2.05371ZM2.05371 111V21H0.0537109V111H2.05371ZM21.0537 130C10.5603 130 2.05371 121.493 2.05371 111H0.0537109C0.0537109 122.598 9.45572 132 21.0537 132V130ZM70.8086 130H21.0537V132H70.8086V130ZM69.8086 131V142.83H71.8086V131H69.8086ZM69.8086 142.83C69.8086 145.348 72.7233 146.745 74.6867 145.169L73.4347 143.609C72.7802 144.135 71.8086 143.669 71.8086 142.83H69.8086ZM74.6867 145.169L91.3647 131.78L90.1126 130.22L73.4347 143.609L74.6867 145.169ZM280.004 130H90.7386V132H280.004V130ZM299.004 111C299.004 121.493 290.497 130 280.004 130V132C291.602 132 301.004 122.598 301.004 111H299.004ZM299.004 21V111H301.004V21H299.004ZM280.004 2C290.497 2 299.004 10.5066 299.004 21H301.004C301.004 9.40202 291.602 0 280.004 0V2ZM21.0537 2H280.004V0H21.0537V2Z" fill="url(#paint0_linear_6_195)"/>
<defs>
<linearGradient id="paint0_linear_6_195" x1="1.05371" y1="72.9167" x2="300.004" y2="72.9167" gradientUnits="userSpaceOnUse">
<stop stop-color="#F7941D"/>
<stop offset="1" stop-color="#27AAE1"/>
</linearGradient>
</defs>
</svg>
