<svg width="26" height="25" viewBox="0 0 26 25" fill="none" xmlns="http://www.w3.org/2000/svg">
<path d="M19.8207 1.01595L24.5493 5.58685L19.2771 10.6833C18.5299 11.4056 18.5299 12.6426 19.2771 13.3648L24.5493 18.4613L19.8207 23.0322L14.4998 17.8886C13.7716 17.1848 12.5514 17.1848 11.8233 17.8886L6.50234 23.0322L1.77382 18.4613L7.04601 13.3648C7.79318 12.6426 7.79318 11.4056 7.04601 10.6833L1.77382 5.58685L6.50234 1.01595L11.8233 6.15954C12.5514 6.8634 13.7717 6.8634 14.4998 6.15954L19.8207 1.01595ZM19.872 23.0818C19.8722 23.0819 19.8724 23.0821 19.8725 23.0823L19.872 23.0818ZM6.45053 23.0823C6.45065 23.0822 6.45077 23.0821 6.45089 23.0819L6.45053 23.0823ZM1.67326 5.48964C1.67333 5.48972 1.67341 5.48979 1.67348 5.48986L1.67326 5.48964Z" stroke="#00093C" stroke-width="2"/>
</svg>
