<svg aria-hidden="true" style="position: absolute; width: 0; height: 0; overflow: hidden;" version="1.1" xmlns="http://www.w3.org/2000/svg" xmlns:xlink="http://www.w3.org/1999/xlink">
<defs>
<symbol id="icon-BugerMenu" viewBox="0 0 45 32">
<path fill="none" stroke="#fff" style="stroke: var(--color1, #fff)" stroke-linejoin="miter" stroke-linecap="round" stroke-miterlimit="4" stroke-width="4.2667" d="M40.834 2.133h-38.701"></path>
<path fill="none" stroke="#fff" style="stroke: var(--color1, #fff)" stroke-linejoin="miter" stroke-linecap="round" stroke-miterlimit="4" stroke-width="4.2667" d="M40.834 15.049h-27.754"></path>
<path fill="none" stroke="#fff" style="stroke: var(--color1, #fff)" stroke-linejoin="miter" stroke-linecap="round" stroke-miterlimit="4" stroke-width="4.2667" d="M40.834 27.84h-38.701"></path>
</symbol>
<symbol id="icon-Circle" viewBox="0 0 16 32">
<path stroke-linejoin="miter" stroke-linecap="butt" stroke-miterlimit="4" stroke-width="0.6667" d="M16 31.667c-8.64 0-15.667-7.027-15.667-15.667s7.027-15.667 15.667-15.667c8.64 0 15.667 7.027 15.667 15.667 0 8.688-7.026 15.667-15.667 15.667z"></path>
</symbol>
<symbol id="icon-Line" viewBox="0 0 83 32">
<path stroke-linejoin="miter" stroke-linecap="butt" stroke-miterlimit="4" stroke-width="1.1429" d="M0.571 31.429l19.598-20.346h62.116v-11.083"></path>
</symbol>
<symbol id="icon-Logo" viewBox="0 0 46 32">
<path fill="#fff" style="fill: var(--color1, #fff)" d="M11.118 22.398v1.168h2.031v0.807h-2.031v1.586h-1.001v-4.367h3.282v0.807h-2.281z"></path>
<path fill="#fff" style="fill: var(--color1, #fff)" d="M14.762 25.513c-0.334-0.334-0.529-0.834-0.529-1.474v-2.448h1.001v2.392c0 0.779 0.334 1.168 0.974 1.168 0.306 0 0.556-0.084 0.723-0.278s0.25-0.473 0.25-0.89v-2.392h1.001v2.448c0 0.64-0.167 1.14-0.529 1.474-0.334 0.334-0.834 0.528-1.446 0.528s-1.113-0.195-1.446-0.528z"></path>
<path fill="#fff" style="fill: var(--color1, #fff)" d="M20.186 22.426h-1.391v-0.834h3.783v0.834h-1.391v3.533h-1.001v-3.533z"></path>
<path fill="#fff" style="fill: var(--color1, #fff)" d="M23.718 25.513c-0.334-0.334-0.528-0.834-0.528-1.474v-2.448h1.001v2.392c0 0.779 0.334 1.168 0.974 1.168 0.306 0 0.556-0.084 0.723-0.278s0.25-0.473 0.25-0.89v-2.392h1.001v2.448c0 0.64-0.167 1.14-0.528 1.474-0.334 0.334-0.834 0.528-1.446 0.528s-1.085-0.195-1.446-0.528z"></path>
<path fill="#fff" style="fill: var(--color1, #fff)" d="M31.089 25.958l-0.834-1.224h-0.946v1.224h-1.001v-4.339h1.892c0.389 0 0.723 0.056 1.001 0.195s0.501 0.306 0.668 0.556c0.139 0.223 0.222 0.529 0.222 0.834 0 0.334-0.083 0.612-0.222 0.834-0.167 0.223-0.39 0.417-0.668 0.529l0.974 1.391h-1.085zM30.839 22.62c-0.167-0.139-0.389-0.195-0.695-0.195h-0.834v1.53h0.834c0.306 0 0.528-0.056 0.695-0.195s0.222-0.306 0.222-0.556c0.028-0.278-0.056-0.445-0.222-0.584z"></path>
<path fill="#fff" style="fill: var(--color1, #fff)" d="M36.458 25.152v0.807h-3.366v-4.367h3.282v0.807h-2.281v0.946h2.003v0.807h-2.003v1.001h2.364z"></path>
<path fill="#fff" style="fill: var(--color1, #fff)" d="M12.981 30.849h-2.031l-0.389 0.946h-1.029l1.947-4.339h1.001l1.947 4.339h-1.057l-0.389-0.946zM12.675 30.098l-0.695-1.669-0.695 1.669h1.391z"></path>
<path fill="#fff" style="fill: var(--color1, #fff)" d="M15.874 31.573c-0.362-0.195-0.64-0.473-0.834-0.807s-0.306-0.723-0.306-1.168c0-0.417 0.111-0.807 0.306-1.168 0.195-0.334 0.501-0.612 0.834-0.807 0.362-0.195 0.751-0.278 1.196-0.278 0.389 0 0.723 0.056 1.029 0.195s0.556 0.334 0.779 0.584l-0.64 0.584c-0.306-0.334-0.668-0.501-1.085-0.501-0.278 0-0.501 0.056-0.723 0.167s-0.389 0.278-0.501 0.501c-0.111 0.223-0.167 0.445-0.167 0.723s0.056 0.501 0.167 0.723c0.111 0.223 0.278 0.389 0.501 0.501s0.445 0.167 0.723 0.167c0.445 0 0.807-0.167 1.085-0.528l0.64 0.584c-0.195 0.25-0.473 0.445-0.779 0.584s-0.64 0.195-1.029 0.195c-0.417 0.028-0.834-0.056-1.196-0.25z"></path>
<path fill="#fff" style="fill: var(--color1, #fff)" d="M22.522 30.849h-2.031l-0.389 0.946h-1.029l1.947-4.339h1.001l1.947 4.339h-1.057l-0.389-0.946zM22.216 30.098l-0.695-1.669-0.695 1.669h1.391z"></path>
<path fill="#fff" style="fill: var(--color1, #fff)" d="M24.608 27.428h1.975c0.473 0 0.89 0.083 1.252 0.278 0.362 0.167 0.64 0.445 0.834 0.751 0.195 0.334 0.306 0.695 0.306 1.14s-0.111 0.807-0.306 1.14c-0.195 0.334-0.473 0.584-0.834 0.751s-0.779 0.278-1.252 0.278h-1.975v-4.339zM26.528 30.961c0.445 0 0.779-0.111 1.029-0.362s0.389-0.584 0.389-0.974c0-0.417-0.139-0.751-0.389-0.974-0.25-0.25-0.612-0.362-1.029-0.362h-0.918v2.698h0.918v-0.028z"></path>
<path fill="#fff" style="fill: var(--color1, #fff)" d="M33.287 30.988v0.807h-3.366v-4.367h3.282v0.807h-2.281v0.946h2.031v0.779h-2.031v1.029h2.364z"></path>
<path fill="#fff" style="fill: var(--color1, #fff)" d="M38.238 31.795v-2.615l-1.279 2.142h-0.445l-1.28-2.086v2.559h-0.946v-4.367h0.834l1.613 2.698 1.613-2.698h0.834v4.367h-0.946z"></path>
<path fill="#fff" style="fill: var(--color1, #fff)" d="M42.494 30.237v1.558h-1.001v-1.558l-1.697-2.809h1.085l1.168 1.947 1.14-1.947h1.001l-1.697 2.809z"></path>
<path fill="#00093c" style="fill: var(--color2, #00093c); stroke: var(--color1, #fff)" stroke="#fff" stroke-linejoin="miter" stroke-linecap="butt" stroke-miterlimit="4" stroke-width="1.5238" d="M32.093 18.804v0.762h5.136v-6.687l6.584-12.117h-5.279l-3.724 6.838-3.709-6.838h-5.57l6.562 12.076v5.966z"></path>
<path fill="#00093c" style="fill: var(--color2, #00093c); stroke: var(--color1, #fff)" stroke="#fff" stroke-linejoin="miter" stroke-linecap="butt" stroke-miterlimit="4" stroke-width="1.5238" d="M4.783 19.004h-0l0.009 0.003c1.207 0.374 2.465 0.559 3.772 0.559 1.544 0 2.881-0.25 3.973-0.795 1.073-0.529 1.918-1.246 2.489-2.166 0.561-0.903 0.842-1.902 0.842-2.98 0-0.967-0.186-1.832-0.609-2.553-0.38-0.671-0.886-1.221-1.517-1.639-0.59-0.391-1.241-0.698-1.948-0.925-0.648-0.212-1.304-0.4-1.967-0.563-0.621-0.157-1.19-0.313-1.705-0.468-0.46-0.138-0.789-0.306-1.016-0.482-0.141-0.121-0.204-0.254-0.204-0.459 0-0.226 0.056-0.387 0.147-0.515l0.006-0.008 0.006-0.008c0.078-0.117 0.245-0.268 0.595-0.407 0.32-0.127 0.781-0.209 1.415-0.209 0.607 0 1.236 0.098 1.889 0.3l0.007 0.002 0.007 0.002c0.644 0.185 1.3 0.481 1.968 0.894l0.789 0.488 1.637-4.363-0.492-0.337c-0.8-0.548-1.712-0.948-2.727-1.206-1.003-0.271-2.022-0.407-3.057-0.407-1.531 0-2.866 0.25-3.969 0.793-1.067 0.516-1.905 1.237-2.475 2.174v0l-0.002 0.003c-0.545 0.904-0.814 1.909-0.814 2.995 0 0.978 0.177 1.85 0.583 2.57l0.004 0.006 0.004 0.006c0.394 0.667 0.906 1.216 1.535 1.633 0.584 0.386 1.22 0.7 1.907 0.942v0l0.005 0.002c0.666 0.229 1.325 0.427 1.979 0.591l0.011 0.003 0.011 0.002c0.626 0.139 1.188 0.291 1.688 0.457l0.010 0.003 0.010 0.003c0.459 0.138 0.785 0.312 1.008 0.499l0.009 0.007 0.009 0.007c0.123 0.097 0.194 0.217 0.194 0.452 0 0.189-0.052 0.336-0.153 0.47-0.088 0.116-0.266 0.259-0.613 0.386-0.316 0.105-0.787 0.172-1.446 0.172-0.834 0-1.664-0.143-2.495-0.432-0.831-0.311-1.538-0.697-2.129-1.152l-0.787-0.606-1.809 4.349 0.433 0.359c0.785 0.651 1.789 1.16 2.984 1.547z"></path>
<path fill="#00093c" style="fill: var(--color2, #00093c); stroke: var(--color1, #fff)" stroke="#fff" stroke-linejoin="miter" stroke-linecap="butt" stroke-miterlimit="4" stroke-width="1.5238" d="M19.745 7.82v-7.058h-5.957v18.804h5.957v-4.793l1.778-1.664 5.88 6.457h7.229l-9.083-10.301 8.814-8.503h-7.147l-7.472 7.058z"></path>
</symbol>
<symbol id="icon-exitBurger" viewBox="0 0 32 32">
<path fill="none" stroke="#fff" style="stroke: var(--color1, #fff)" stroke-linejoin="miter" stroke-linecap="round" stroke-miterlimit="4" stroke-width="5.3333" d="M2.667 2.667l26.665 26.665"></path>
<path fill="none" stroke="#fff" style="stroke: var(--color1, #fff)" stroke-linejoin="miter" stroke-linecap="round" stroke-miterlimit="4" stroke-width="5.3333" d="M29.333 2.667l-26.665 26.665"></path>
</symbol>
<symbol id="icon-vk" viewBox="0 0 54 32">
<path fill="#00093c" style="fill: var(--color1, #00093c)" d="M51.094 3.43c-0.188 0.938-0.938 2.469-2.25 4.594-1.25 2.125-2.406 4-3.469 5.625-1.063 1.563-1.625 2.375-1.687 2.438-0.375 0.563-0.563 0.969-0.563 1.219s0.187 0.688 0.563 1.313c0 0 0.187 0.219 0.562 0.656 0.438 0.438 0.938 0.938 1.5 1.5s1.188 1.219 1.875 1.969 1.313 1.5 1.875 2.25c0.625 0.687 1.156 1.406 1.594 2.156 0.5 0.75 0.844 1.375 1.031 1.875 0.437 1.563-0.187 2.344-1.875 2.344h-5.531c-0.438 0-0.813-0.063-1.125-0.188s-0.656-0.344-1.031-0.656c-0.375-0.312-0.719-0.656-1.031-1.031s-0.781-0.906-1.406-1.594c-0.625-0.687-1.25-1.344-1.875-1.969-2.5-2.375-4.344-3.562-5.531-3.562-0.75 0-1.188 0.219-1.313 0.656s-0.187 1.688-0.187 3.75c0.062 1 0.094 1.813 0.094 2.438 0 0.75-0.25 1.312-0.75 1.687-0.5 0.313-1.594 0.469-3.281 0.469-2.937 0-5.906-0.875-8.906-2.625s-5.625-4.25-7.875-7.5c-2.125-2.875-3.906-5.719-5.344-8.531-1.375-2.875-2.281-5.063-2.719-6.563s-0.656-2.563-0.656-3.188c0-1.063 0.625-1.594 1.875-1.594h5.531c0.688 0 1.188 0.156 1.5 0.469 0.375 0.313 0.688 0.875 0.938 1.688 1.313 3.813 2.906 7.219 4.781 10.219 1.938 3 3.406 4.5 4.406 4.5 0.375 0 0.625-0.125 0.75-0.375 0.188-0.313 0.281-0.875 0.281-1.688v-8.156c-0.063-0.875-0.219-1.625-0.469-2.25s-0.5-1.063-0.75-1.313c-0.25-0.313-0.5-0.625-0.75-0.938-0.188-0.313-0.281-0.594-0.281-0.844s0.062-0.469 0.187-0.656c0.125-0.188 0.281-0.344 0.469-0.469 0.25-0.125 0.5-0.188 0.75-0.188h8.719c1 0 1.5 0.688 1.5 2.063v10.875c0 1.063 0.281 1.594 0.844 1.594 0.625 0 1.5-0.563 2.625-1.688 1.187-1.313 2.344-2.906 3.469-4.781s1.969-3.438 2.531-4.688l0.844-1.781c0.438-1.063 1.219-1.594 2.344-1.594h5.531c1.5 0 2.063 0.688 1.688 2.063z"></path>
</symbol>
<symbol id="icon-Blocks" viewBox="0 0 38 32" >
<path fill="none" stroke="#00093c" style="stroke: var(--color1, #00093c)" stroke-linejoin="miter" stroke-linecap="butt" stroke-miterlimit="4" stroke-width="3.7647" d="M3.765 2.85h30.118c1.040 0 1.882 0.843 1.882 1.882v5.642c0 1.040-0.843 1.882-1.882 1.882h-30.118c-1.040 0-1.882-0.843-1.882-1.882v-5.642c0-1.040 0.843-1.882 1.882-1.882z"></path>
<path fill="none" stroke="#00093c" style="stroke: var(--color1, #00093c)" stroke-linejoin="miter" stroke-linecap="butt" stroke-miterlimit="4" stroke-width="3.7647" d="M3.765 19.738h30.118c1.040 0 1.882 0.843 1.882 1.882v5.647c0 1.040-0.843 1.882-1.882 1.882h-30.118c-1.040 0-1.882-0.843-1.882-1.882v-5.647c0-1.040 0.843-1.882 1.882-1.882z"></path>
</symbol>
<symbol id="icon-facebook" viewBox="0 0 32 32">
<path fill="#00093c" style="fill: var(--color1, #00093c)" d="M31.5 16c0 3.833-1.25 7.208-3.75 10.125-2.5 2.875-5.604 4.604-9.313 5.187v-10.813h3.625l0.687-4.5h-4.313v-2.938c0-1.583 0.833-2.375 2.5-2.375h1.937v-3.813c-1.167-0.208-2.312-0.313-3.437-0.313-1.208 0-2.25 0.229-3.125 0.688-0.833 0.458-1.5 1.146-2 2.063s-0.75 2-0.75 3.25v3.438h-3.938v4.5h3.938v10.813c-3.708-0.583-6.813-2.313-9.313-5.187-2.5-2.917-3.75-6.292-3.75-10.125 0-4.292 1.5-7.938 4.5-10.938 3.042-3.042 6.708-4.563 11-4.563s7.937 1.521 10.937 4.563c3.042 3 4.563 6.646 4.563 10.938z"></path>
</symbol>
<symbol id="icon-geo" viewBox="0 0 27 32">
<path fill="none" stroke="#00093c" style="stroke: var(--color1, #00093c)" stroke-linejoin="miter" stroke-linecap="butt" stroke-miterlimit="4" stroke-width="3.2" d="M25.6 13.6c0 4.525-2.992 8.727-6.314 11.952-1.628 1.58-3.262 2.855-4.492 3.735-0.466 0.333-0.871 0.608-1.194 0.821-0.322-0.212-0.728-0.488-1.194-0.821-1.23-0.88-2.864-2.154-4.492-3.735-3.322-3.225-6.314-7.427-6.314-11.952 0-6.627 5.373-12 12-12s12 5.373 12 12z"></path>
<path fill="#00093c" style="fill: var(--color1, #00093c)" d="M17.6 12c0 2.209-1.791 4-4 4s-4-1.791-4-4c0-2.209 1.791-4 4-4s4 1.791 4 4z"></path>
</symbol>
<symbol id="icon-instagram" viewBox="0 0 32 32">
<path fill="#00093c" style="fill: var(--color1, #00093c)" d="M9.75 10.477c1.545-1.545 3.409-2.318 5.591-2.318s4.023 0.773 5.523 2.318c1.545 1.5 2.318 3.341 2.318 5.523s-0.773 4.045-2.318 5.591c-1.5 1.5-3.341 2.25-5.523 2.25s-4.045-0.75-5.591-2.25c-1.5-1.546-2.25-3.409-2.25-5.591s0.75-4.023 2.25-5.523zM11.727 19.614c1 1 2.205 1.5 3.614 1.5s2.614-0.5 3.614-1.5c1-1 1.5-2.204 1.5-3.614s-0.5-2.614-1.5-3.614c-1-1-2.204-1.5-3.614-1.5s-2.614 0.5-3.614 1.5-1.5 2.204-1.5 3.614c0 1.409 0.5 2.614 1.5 3.614zM24.75 6.591c0.364 0.318 0.545 0.727 0.545 1.227s-0.182 0.932-0.545 1.295c-0.318 0.364-0.727 0.545-1.227 0.545s-0.932-0.182-1.296-0.545-0.545-0.795-0.545-1.295c0-0.5 0.182-0.909 0.545-1.227 0.364-0.364 0.796-0.545 1.296-0.545s0.909 0.182 1.227 0.545zM30.545 9.727c0.045 1.227 0.068 3.318 0.068 6.273s-0.023 5.046-0.068 6.273c-0.136 2.773-0.977 4.932-2.523 6.477-1.5 1.5-3.636 2.296-6.409 2.386-1.227 0.091-3.318 0.136-6.273 0.136s-5.046-0.045-6.273-0.136c-2.773-0.136-4.909-0.954-6.409-2.454-0.591-0.545-1.068-1.182-1.432-1.909s-0.636-1.432-0.818-2.114c-0.136-0.682-0.205-1.477-0.205-2.386-0.091-1.227-0.136-3.318-0.136-6.273s0.045-5.068 0.136-6.341c0.136-2.727 0.955-4.841 2.455-6.341 1.5-1.545 3.636-2.386 6.409-2.523 1.227-0.045 3.318-0.068 6.273-0.068s5.045 0.023 6.273 0.068c2.773 0.136 4.909 0.977 6.409 2.523 1.545 1.5 2.386 3.636 2.523 6.409zM27.273 25c0.136-0.364 0.25-0.818 0.341-1.364 0.091-0.591 0.159-1.273 0.204-2.045 0.045-0.818 0.068-1.477 0.068-1.977s0-1.205 0-2.114 0-1.409 0-1.5c0-0.136 0-0.636 0-1.5 0-0.909 0-1.614 0-2.114s-0.023-1.136-0.068-1.909c-0.045-0.818-0.114-1.5-0.204-2.045-0.091-0.591-0.204-1.068-0.341-1.432-0.545-1.409-1.523-2.386-2.932-2.932-0.364-0.136-0.841-0.25-1.432-0.341-0.545-0.091-1.227-0.159-2.045-0.205-0.773-0.045-1.409-0.068-1.909-0.068-0.454 0-1.159 0-2.114 0-0.909 0-1.409 0-1.5 0s-0.591 0-1.5 0c-0.909 0-1.614 0-2.114 0s-1.159 0.023-1.977 0.068c-0.773 0.045-1.455 0.114-2.045 0.205-0.545 0.091-1 0.205-1.364 0.341-1.409 0.545-2.386 1.523-2.932 2.932-0.136 0.364-0.25 0.841-0.341 1.432-0.091 0.545-0.159 1.227-0.205 2.045-0.045 0.773-0.068 1.409-0.068 1.909 0 0.455 0 1.159 0 2.114 0 0.909 0 1.409 0 1.5 0 0.182 0 0.614 0 1.295 0 0.636 0 1.182 0 1.636 0 0.409 0 0.955 0 1.636 0.045 0.682 0.091 1.273 0.136 1.773 0.045 0.455 0.114 0.932 0.205 1.432s0.182 0.909 0.273 1.227c0.591 1.409 1.568 2.386 2.932 2.932 0.364 0.136 0.818 0.25 1.364 0.341 0.591 0.091 1.273 0.159 2.045 0.204 0.818 0.046 1.455 0.068 1.909 0.068 0.5 0 1.205 0 2.114 0 0.955 0 1.477 0 1.568 0 0.136 0 0.636 0 1.5 0 0.909 0 1.614 0 2.114 0s1.136-0.023 1.909-0.068c0.818-0.045 1.5-0.114 2.045-0.204 0.591-0.091 1.068-0.204 1.432-0.341 1.409-0.591 2.386-1.568 2.932-2.932z"></path>
</symbol>
<symbol id="icon-telegram" viewBox="0 0 35 32">
<path fill="#00093c" style="fill: var(--color1, #00093c)" d="M33.6 4.225l-5.1 23.85c-0.4 1.7-1.325 2.15-2.775 1.35l-7.725-5.7-3.75 3.6c-0.5 0.5-1.025 0.75-1.575 0.75l0.6-7.875 14.325-12.9c0.35-0.35 0.35-0.55 0-0.6-0.3-0.1-0.625-0.025-0.975 0.225l-17.7 11.175-7.65-2.4c-0.85-0.25-1.25-0.625-1.2-1.125s0.575-0.925 1.575-1.275l29.775-11.55c0.75-0.25 1.35-0.15 1.8 0.3 0.45 0.4 0.575 1.125 0.375 2.175z"></path>
</symbol>
<symbol id="icon-user" viewBox="0 0 30 32">
<path fill="none" stroke="#00093c" style="stroke: var(--color1, #00093c)" stroke-linejoin="miter" stroke-linecap="butt" stroke-miterlimit="4" stroke-width="3.3684" d="M14.315 1.684h-0c3.087 0 5.59 2.503 5.59 5.59v2.986c0 3.087-2.503 5.59-5.59 5.59h0c-3.087 0-5.59-2.503-5.59-5.59v-2.986c0-3.087 2.503-5.59 5.59-5.59z"></path>
<path fill="none" stroke="#00093c" style="stroke: var(--color1, #00093c)" stroke-linejoin="miter" stroke-linecap="butt" stroke-miterlimit="4" stroke-width="3.3684" d="M1.684 25.956c0-2.79 2.262-5.053 5.053-5.053h15.629c2.791 0 5.053 2.262 5.053 5.053v1.536c0 0.93-0.754 1.684-1.684 1.684h-22.365c-0.93 0-1.684-0.754-1.684-1.684v-1.536z"></path>
</symbol>
<symbol id="icon-youtube" viewBox="0 0 48 32">
<path fill="#00093c" style="fill: var(--color1, #00093c)" d="M45.833 5c0.167 0.667 0.306 1.5 0.417 2.5 0.167 1 0.278 2 0.333 3 0.056 0.944 0.083 1.833 0.083 2.667 0.055 0.833 0.083 1.528 0.083 2.083v0.75c0 5-0.306 8.694-0.917 11.083-0.278 0.944-0.778 1.778-1.5 2.5s-1.583 1.222-2.583 1.5c-1.056 0.278-3.056 0.5-6 0.667-2.945 0.111-5.639 0.195-8.083 0.25h-3.667c-9.5 0-15.417-0.306-17.75-0.917-2.167-0.611-3.528-1.945-4.083-4-0.278-1.056-0.5-2.5-0.667-4.333-0.111-1.889-0.194-3.472-0.25-4.75v-2c0-4.944 0.306-8.611 0.917-11 0.278-1 0.778-1.861 1.5-2.583s1.583-1.222 2.583-1.5c1.056-0.278 3.056-0.472 6-0.583 2.944-0.167 5.639-0.278 8.083-0.333h3.667c9.5 0 15.417 0.306 17.75 0.917 1 0.278 1.861 0.778 2.583 1.5s1.222 1.583 1.5 2.583zM19.333 22.833l11.917-6.833-11.917-6.75v13.583z"></path>
</symbol>
<symbol id="icon-Done" viewBox="0 0 46 32">
<path fill="none" stroke="#00093c" style="stroke: var(--color1, #00093c)" stroke-linejoin="miter" stroke-linecap="round" stroke-miterlimit="4" stroke-width="9.1429" d="M4.571 4.571l18.286 18.286 18.286-18.286"></path>
</symbol>
<symbol id="icon-line-decoration-gradient" viewBox="0 0 83 32">
<path stroke-linejoin="miter" stroke-linecap="butt" stroke-miterlimit="4" stroke-width="1.1429" d="M0.571 31.429l19.598-20.346h62.116v-11.083"></path>
</symbol>
<symbol id="icon-Field" viewBox="0 0 66 32">
<path fill="#fff" style="fill: var(--color1, #fff)" d="M4.614 0.219c-2.421 0-4.384 1.963-4.384 4.384v19.726c0 2.421 1.963 4.384 4.384 4.384h10.905v2.593c0 0.368 0.426 0.572 0.713 0.342l3.655-2.935h41.483c2.421 0 4.384-1.963 4.384-4.384v-19.726c0-2.421-1.963-4.384-4.384-4.384h-56.756z"></path>
<path fill="#000" style="fill: var(--color2, #000)" d="M15.52 28.712h0.219v-0.219h-0.219v0.219zM16.232 31.647v0zM19.888 28.712v-0.219h-0.077l-0.060 0.048 0.137 0.171zM0.45 4.603c0-2.3 1.864-4.164 4.164-4.164v-0.438c-2.542 0-4.603 2.061-4.603 4.603h0.438zM0.45 24.329v-19.726h-0.438v19.726h0.438zM4.614 28.493c-2.3 0-4.164-1.865-4.164-4.164h-0.438c0 2.542 2.061 4.603 4.603 4.603v-0.438zM15.52 28.493h-10.905v0.438h10.905v-0.438zM15.3 28.712v2.593h0.438v-2.593h-0.438zM15.3 31.305c0 0.552 0.639 0.858 1.069 0.513l-0.274-0.342c-0.143 0.115-0.356 0.013-0.356-0.171h-0.438zM16.37 31.818l3.655-2.935-0.274-0.342-3.655 2.935 0.274 0.342zM61.371 28.493h-41.483v0.438h41.483v-0.438zM65.535 24.329c0 2.3-1.865 4.164-4.164 4.164v0.438c2.542 0 4.603-2.061 4.603-4.603h-0.438zM65.535 4.603v19.726h0.438v-19.726h-0.438zM61.371 0.438c2.3 0 4.164 1.864 4.164 4.164h0.438c0-2.542-2.061-4.603-4.603-4.603v0.438zM4.614 0.438h56.756v-0.438h-56.756v0.438z"></path>
</symbol>
<symbol id="icon-circle" viewBox="0 0 33 32">
<path fill="none" stroke="#00093c" style="stroke: var(--color1, #00093c)" stroke-linejoin="miter" stroke-linecap="butt" stroke-miterlimit="4" stroke-width="2.56" d="M16.865 30.44c-8.149 0-14.702-6.396-14.702-14.169s6.553-14.169 14.702-14.169c8.149 0 14.702 6.396 14.702 14.169 0 7.817-6.551 14.169-14.702 14.169z"></path>
</symbol>
<symbol id="icon-cursor" viewBox="0 0 33 32">
<path fill="none" stroke="#00093c" style="stroke: var(--color1, #00093c)" stroke-linejoin="miter" stroke-linecap="butt" stroke-miterlimit="4" stroke-width="2.56" d="M12.659 12.867l-3.058-5.366M9.6 7.501c0 0-1.864-3.27-3.058-5.366-0.382-0.671-1.288-0.757-2.144-0.607-0.606 0.107-0.963 0.297-1.38 0.735-0.589 0.619-0.997 1.405-0.615 2.076 0.187 0.329 6.499 11.402 7.646 13.415 1.056 1.852-5.023-1.421-5.361-1.517-1.072-0.303-3.142 0.799-1.995 2.811 0.224 0.392 11.212 7.875 15.064 10.492 0.812 0.551 1.858 0.606 2.714 0.15l9.367-4.989c0.985-0.524 1.498-1.614 1.244-2.692-0.459-1.944-1.252-5.061-2.107-7.34-1.265-3.373-3.515-7.745-3.898-8.416-1.078-1.888-5.668-0.478-5.668-0.478M9.6 7.501c0 0 1.529-1.425 2.76-1.47 0.87-0.032 2.144 0.607 2.144 0.607M14.504 6.638l2.294 4.024M14.504 6.638c0 0 0.233-2.747 4.14-2.205 0.143 0.020 0.764 1.342 0.764 1.342M21.702 9.799l-2.294-4.024"></path>
</symbol>
<symbol id="icon-stop" viewBox="0 0 33 32">
<path fill="none" stroke="#00093c" style="stroke: var(--color1, #00093c)" stroke-linejoin="miter" stroke-linecap="butt" stroke-miterlimit="4" stroke-width="2.56" d="M25.37 1.3l6.053 5.851-6.748 6.523c-0.956 0.925-0.956 2.508 0 3.432l6.748 6.524-6.053 5.851-6.811-6.584c-0.932-0.901-2.494-0.901-3.426 0l-6.811 6.584-6.053-5.851 6.748-6.524c0.956-0.924 0.956-2.508 0-3.432l-6.748-6.523 6.053-5.851 6.811 6.584c0.932 0.901 2.494 0.901 3.426 0l6.811-6.584zM25.436 29.545c0 0 0 0 0.001 0.001l-0.001-0.001zM8.257 29.545c0-0 0-0 0-0l-0 0zM2.142 7.027c0 0 0 0 0 0l-0-0z"></path>
</symbol>
<symbol id="icon-triangle" viewBox="0 0 40 32">
<path fill="none" stroke="#00093c" style="stroke: var(--color1, #00093c)" stroke-linejoin="miter" stroke-linecap="butt" stroke-miterlimit="4" stroke-width="2.6667" d="M2.76 29.597l17.82-28.149 17.821 28.149h-35.641z"></path>
</symbol>
</defs>
</svg>
