<svg width="57" height="47" viewBox="0 0 57 47" fill="none" xmlns="http://www.w3.org/2000/svg">
<path d="M53.6174 3.06682H51.2617V0.829671C51.2617 0.370388 50.8914 0 50.4321 0H45.4096C44.9503 0 44.5799 0.370388 44.5799 0.829671V3.06682H17.0378V0.829671C17.0378 0.370388 16.6674 0 16.2081 0H11.1856C10.7263 0 10.3559 0.370388 10.3559 0.829671V3.06682H8.41509C6.38536 3.06682 4.72601 4.72617 4.72601 6.7559V27.0384C4.72601 27.4977 5.0964 27.8681 5.55569 27.8681C6.01497 27.8681 6.38536 27.4977 6.38536 27.0384V6.7559C6.38536 5.64473 7.28911 4.72617 8.41509 4.72617H53.6322C54.5212 4.72617 55.2471 5.45213 55.2471 6.34107V33.898C55.2471 34.787 54.5212 35.5129 53.6322 35.5129H51.8544V32.3572C51.8544 31.8979 51.484 31.5276 51.0247 31.5276H42.0761C41.6168 31.5276 41.2464 31.8979 41.2464 32.3572V35.5129H27.8531L31.0089 34.6536C32.6386 34.2092 34.0757 33.2758 35.1424 31.972L40.5056 25.4532C40.6093 25.3198 40.6834 25.1569 40.6982 24.9939L41.1723 18.7713C41.2168 18.1639 40.8464 17.5565 40.2834 17.3194C40.5353 17.1713 40.7131 16.9046 40.7131 16.5934C40.7131 16.1342 40.3427 15.7638 39.8834 15.7638H36.2388C35.7795 15.7638 35.4091 16.1342 35.4091 16.5934C35.4091 17.0527 35.7795 17.4231 36.2388 17.4231H38.9648C38.8759 17.4824 38.787 17.5565 38.713 17.6305L35.6609 20.6825C35.0683 21.2752 34.5794 22.0159 34.0609 22.6678C33.7794 23.0234 33.8238 23.5568 34.1942 23.8383C34.5498 24.1198 35.0831 24.0753 35.3646 23.7049L36.3276 22.5197L38.787 24.9791L33.9127 30.9201C33.0534 31.9572 31.9274 32.698 30.6236 33.0536L17.4674 36.8463C16.4451 37.1723 16.9637 38.7576 17.9711 38.4316L20.8602 37.4982V44.4764H19.7046C19.2453 44.4764 18.8749 44.8468 18.8749 45.306C18.8749 45.7653 19.2453 46.1357 19.7046 46.1357H24.8011C25.2604 46.1357 25.6308 45.7653 25.6308 45.306C25.6308 44.8468 25.2604 44.4764 24.8011 44.4764H22.5343V37.1871H53.6619C55.4694 37.1871 56.9361 35.7204 56.9361 33.9129V6.35588C56.8917 4.53357 55.4249 3.06682 53.6174 3.06682ZM46.2245 1.65934H49.5876V3.05201H46.2245V1.65934ZM12.0005 1.65934H15.3636V3.05201H12.0005V1.65934ZM39.4685 19.1862L39.1722 23.0382L37.3944 21.2604L39.4685 19.1862ZM42.8761 35.5129V33.1869H50.1654V35.5129H42.8761Z" fill="#00093C"/>
<path d="M15.6749 44.4764H4.97803V40.0465C4.97803 37.2316 5.62992 34.4314 6.85961 31.9128C7.54113 30.5349 8.96342 29.646 10.5042 29.646H24.5494C27.4829 29.646 30.3423 28.6089 32.5943 26.7273C32.9498 26.431 32.9943 25.9125 32.698 25.5569C32.4017 25.2013 31.8831 25.1569 31.5275 25.4532C29.5719 27.0829 27.0977 27.9867 24.5642 27.9867H18.5195C19.4529 27.0088 20.0307 25.6902 20.0307 24.2383V21.1715C22.1789 21.0233 23.8679 19.2455 23.8679 17.0676C23.8679 14.8008 22.0159 12.9488 19.7492 12.9488C18.3565 12.9192 17.0379 13.2452 16.0749 14.2971C15.6008 14.8156 14.9193 15.1119 14.223 15.1119H11.9265C10.0153 15.1119 8.4597 16.6676 8.4597 18.5788V24.8309C8.4597 25.5421 8.62267 26.2384 9.05232 26.8162C9.24492 27.0829 9.48197 27.3051 9.74865 27.4829C10.045 27.6755 10.4598 27.7496 10.6968 27.9867C8.4597 27.9422 6.34107 29.1719 5.36324 31.1868C4.01502 33.9425 3.30387 36.9945 3.30387 40.0614V44.4912H0.829673C0.37039 44.4912 0 44.8616 0 45.3209C0 45.7802 0.37039 46.1506 0.829673 46.1506H15.6749C16.1342 46.1506 16.5046 45.7802 16.5046 45.3209C16.5194 44.8468 16.1342 44.4764 15.6749 44.4764ZM14.3711 27.957C13.9118 27.9274 13.4525 27.8089 13.0377 27.6163C13.2303 27.5126 13.4229 27.394 13.5859 27.2607C14.2822 26.6829 14.6674 25.8384 14.6674 24.8754V21.1715H18.3565V24.2235C18.3565 26.2829 16.6823 27.9718 14.6082 27.9718C14.5193 27.9718 14.4452 27.9718 14.3711 27.957ZM10.1339 24.8161V18.564C10.1339 17.5713 10.9487 16.7565 11.9414 16.7565H14.223C15.3934 16.7565 16.5046 16.2675 17.3046 15.4082C17.9565 14.6971 18.8454 14.5637 19.764 14.5934C21.1122 14.5934 22.2085 15.6897 22.2085 17.0379C22.2085 18.3862 21.1122 19.4825 19.764 19.4825H13.8377C13.3785 19.4825 13.0081 19.8529 13.0081 20.3122V24.8606C13.0081 25.8384 12.1488 26.4458 11.2154 26.2681C10.4746 26.1495 10.1339 25.5421 10.1339 24.8161Z" fill="#00093C"/>
<path d="M28.5346 12.7267H33.0682C33.5275 12.7267 33.8979 12.3563 33.8979 11.897V8.83016C33.8979 8.37088 33.5275 8.00049 33.0682 8.00049H28.5346C28.0753 8.00049 27.705 8.37088 27.705 8.83016V11.897C27.6901 12.3563 28.0605 12.7267 28.5346 12.7267ZM29.3643 9.65983H32.2385V11.0525H29.3643V9.65983Z" fill="#00093C"/>
<path d="M27.6902 18.1048C27.6902 18.564 28.0605 18.9344 28.5198 18.9344H33.0534C33.5127 18.9344 33.8831 18.564 33.8831 18.1048V15.0379C33.8831 14.5786 33.5127 14.2083 33.0534 14.2083H28.5198C28.0605 14.2083 27.6902 14.5786 27.6902 15.0379V18.1048ZM29.3643 15.8824H32.2385V17.2751H29.3643V15.8824Z" fill="#00093C"/>
<path d="M36.2093 11.1857H50.9952C51.4545 11.1857 51.8249 10.8153 51.8249 10.356C51.8249 9.89676 51.4545 9.52637 50.9952 9.52637H36.2093C35.75 9.52637 35.3796 9.89676 35.3796 10.356C35.3796 10.8153 35.75 11.1857 36.2093 11.1857Z" fill="#00093C"/>
</svg>
