<svg width="251" height="152" viewBox="0 0 251 152" fill="none" xmlns="http://www.w3.org/2000/svg">
<path fill-rule="evenodd" clip-rule="evenodd" d="M36.8066 1C25.7609 1 16.8066 9.9543 16.8066 21V94H3.30625C1.40896 94 0.57791 96.3948 2.06737 97.5701L16.8066 109.2V131C16.8066 142.046 25.7609 151 36.8066 151H230C241.046 151 250 142.046 250 131V21C250 9.95431 241.046 1 230 1H36.8066Z" fill="white"/>
<path d="M16.8066 94V95H17.8066V94H16.8066ZM2.06737 97.5701L1.44793 98.3551H1.44793L2.06737 97.5701ZM16.8066 109.2H17.8066V108.715L17.426 108.415L16.8066 109.2ZM17.8066 21C17.8066 10.5066 26.3132 2 36.8066 2V0C25.2086 0 15.8066 9.40202 15.8066 21H17.8066ZM17.8066 94V21H15.8066V94H17.8066ZM3.30625 95H16.8066V93H3.30625V95ZM2.68681 96.785C1.94208 96.1974 2.3576 95 3.30625 95V93C0.460315 93 -0.786259 96.5923 1.44793 98.3551L2.68681 96.785ZM17.426 108.415L2.68681 96.785L1.44793 98.3551L16.1872 109.985L17.426 108.415ZM17.8066 131V109.2H15.8066V131H17.8066ZM36.8066 150C26.3132 150 17.8066 141.493 17.8066 131H15.8066C15.8066 142.598 25.2086 152 36.8066 152V150ZM230 150H36.8066V152H230V150ZM249 131C249 141.493 240.493 150 230 150V152C241.598 152 251 142.598 251 131H249ZM249 21V131H251V21H249ZM230 2C240.493 2 249 10.5066 249 21H251C251 9.40202 241.598 0 230 0V2ZM36.8066 2H230V0H36.8066V2Z" fill="url(#paint0_linear_7_484)"/>
<defs>
<linearGradient id="paint0_linear_7_484" x1="1.30231" y1="76" x2="250" y2="76" gradientUnits="userSpaceOnUse">
<stop stop-color="#F7941D"/>
<stop offset="1" stop-color="#27AAE1"/>
</linearGradient>
</defs>
</svg>
